<?xml version="1.0" standalone="no"?>
 <!DOCTYPE svg PUBLIC "-//W3C//DTD SVG 1.1//EN" 
 "http://www.w3.org/Graphics/SVG/1.1/DTD/svg11.dtd"> 
<svg xmlns="http://www.w3.org/2000/svg" version="1.1" 
    width="27.94cm" height="21.59cm" viewBox="0 0 110000 85000 ">
<title>SVG Picture created as Thermometer-Shield-B.SilkS.svg date 2017/07/12 20:46:00 </title>
  <desc>Picture generated by PCBNEW </desc>
<g style="fill:#000000; fill-opacity:1;stroke:#000000; stroke-opacity:1;
stroke-linecap:round; stroke-linejoin:round; "
 transform="translate(0 0) scale(1 1)">
</g>
<g style="fill:#000000; fill-opacity:0.0; 
stroke:#000000; stroke-width:-0.000393701; stroke-opacity:1; 
stroke-linecap:round; stroke-linejoin:round;">
</g>
<g style="fill:#000000; fill-opacity:0.0; 
stroke:#000000; stroke-width:59.0551; stroke-opacity:1; 
stroke-linecap:round; stroke-linejoin:round;">
<path d="M62616 27572
L60883 27572
" />
<path d="M63236 25397
L60883 25397
" />
</g>
<g style="fill:#000000; fill-opacity:0.0; 
stroke:#000000; stroke-width:47.2441; stroke-opacity:1; 
stroke-linecap:round; stroke-linejoin:round;">
<path d="M58903 28013
L58903 28486
" />
<path d="M59596 28486
L59596 28013
" />
<path d="M70267 25696
L70267 25303
" />
<path d="M69732 25303
L69732 25696
" />
<path d="M72696 24732
L72303 24732
" />
<path d="M72303 25267
L72696 25267
" />
<path d="M69267 25696
L69267 25303
" />
<path d="M68732 25303
L68732 25696
" />
<path d="M71446 27232
L71053 27232
" />
<path d="M71053 27767
L71446 27767
" />
<path d="M69446 27232
L69053 27232
" />
<path d="M69053 27767
L69446 27767
" />
<path d="M67267 25696
L67267 25303
" />
<path d="M66732 25303
L66732 25696
" />
<path d="M71267 25696
L71267 25303
" />
<path d="M70732 25303
L70732 25696
" />
<path d="M67446 27232
L67053 27232
" />
<path d="M67053 27767
L67446 27767
" />
<path d="M84946 36236
L84946 35763
" />
<path d="M84253 35763
L84253 36236
" />
<path d="M72486 31903
L72013 31903
" />
<path d="M72013 32596
L72486 32596
" />
<path d="M75986 31903
L75513 31903
" />
<path d="M75513 32596
L75986 32596
" />
<path d="M80013 35346
L80486 35346
" />
<path d="M80486 34653
L80013 34653
" />
<path d="M80013 38346
L80486 38346
" />
<path d="M80486 37653
L80013 37653
" />
<path d="M77013 38346
L77486 38346
" />
<path d="M77486 37653
L77013 37653
" />
<path d="M77013 39596
L77486 39596
" />
<path d="M77486 38903
L77013 38903
" />
</g>
<g style="fill:#000000; fill-opacity:0.0; 
stroke:#000000; stroke-width:59.0551; stroke-opacity:1; 
stroke-linecap:round; stroke-linejoin:round;">
<path d="M74383 25427
L76116 25427
" />
<path d="M73763 27602
L76116 27602
" />
<path d="M65157 31224
L65255 31224
" />
<path d="M65157 34275
L65293 34275
" />
<path d="M69842 34275
L69706 34275
" />
<path d="M69842 31224
L69706 31224
" />
<path d="M65157 31224
L65157 34275
" />
<path d="M69842 31224
L69842 34275
" />
<path d="M65255 31224
L65255 30505
" />
</g>
<g style="fill:#000000; fill-opacity:0.0; 
stroke:#000000; stroke-width:47.2441; stroke-opacity:1; 
stroke-linecap:round; stroke-linejoin:round;">
<path d="M63486 24153
L63013 24153
" />
<path d="M63013 24846
L63486 24846
" />
<path d="M61236 27903
L60763 27903
" />
<path d="M60763 28596
L61236 28596
" />
<path d="M64263 27596
L64736 27596
" />
<path d="M64736 26903
L64263 26903
" />
<path d="M64732 25303
L64732 25696
" />
<path d="M65267 25696
L65267 25303
" />
<path d="M67732 25303
L67732 25696
" />
<path d="M68267 25696
L68267 25303
" />
</g>
<g style="fill:#000000; fill-opacity:0.0; 
stroke:#000000; stroke-width:59.0551; stroke-opacity:1; 
stroke-linecap:round; stroke-linejoin:round;">
<path d="M62049 24886
L62049 25205
L62031 25242
L62012 25261
L61974 25280
L61899 25280
L61862 25261
L61843 25242
L61824 25205
L61824 24886
" />
<path d="M61431 25280
L61656 25280
" />
<path d="M61543 25280
L61543 24886
L61581 24943
L61618 24980
L61656 24999
" />
<path d="M60178 28934
L59990 28803
" />
<path d="M60178 28709
L59784 28709
L59784 28859
L59803 28896
L59821 28915
L59859 28934
L59915 28934
L59953 28915
L59971 28896
L59990 28859
L59990 28709
" />
<path d="M59821 29084
L59803 29103
L59784 29140
L59784 29234
L59803 29271
L59821 29290
L59859 29309
L59896 29309
L59953 29290
L60178 29065
L60178 29309
" />
<path d="M69607 25434
L69419 25303
" />
<path d="M69607 25209
L69213 25209
L69213 25359
L69232 25396
L69251 25415
L69288 25434
L69344 25434
L69382 25415
L69401 25396
L69419 25359
L69419 25209
" />
<path d="M69213 25790
L69213 25603
L69401 25584
L69382 25603
L69363 25640
L69363 25734
L69382 25771
L69401 25790
L69438 25809
L69532 25809
L69569 25790
L69588 25771
L69607 25734
L69607 25640
L69588 25603
L69569 25584
" />
<path d="M73065 24428
L73196 24240
" />
<path d="M73290 24428
L73290 24034
L73140 24034
L73103 24053
L73084 24071
L73065 24109
L73065 24165
L73084 24203
L73103 24221
L73140 24240
L73290 24240
" />
<path d="M72728 24034
L72803 24034
L72840 24053
L72859 24071
L72896 24128
L72915 24203
L72915 24353
L72896 24390
L72878 24409
L72840 24428
L72765 24428
L72728 24409
L72709 24390
L72690 24353
L72690 24259
L72709 24221
L72728 24203
L72765 24184
L72840 24184
L72878 24203
L72896 24221
L72915 24259
" />
<path d="M68607 25434
L68419 25303
" />
<path d="M68607 25209
L68213 25209
L68213 25359
L68232 25396
L68251 25415
L68288 25434
L68344 25434
L68382 25415
L68401 25396
L68419 25359
L68419 25209
" />
<path d="M68213 25565
L68213 25828
L68607 25659
" />
<path d="M71315 27178
L71446 26990
" />
<path d="M71540 27178
L71540 26784
L71390 26784
L71353 26803
L71334 26821
L71315 26859
L71315 26915
L71334 26953
L71353 26971
L71390 26990
L71540 26990
" />
<path d="M71090 26953
L71128 26934
L71146 26915
L71165 26878
L71165 26859
L71146 26821
L71128 26803
L71090 26784
L71015 26784
L70978 26803
L70959 26821
L70940 26859
L70940 26878
L70959 26915
L70978 26934
L71015 26953
L71090 26953
L71128 26971
L71146 26990
L71165 27028
L71165 27103
L71146 27140
L71128 27159
L71090 27178
L71015 27178
L70978 27159
L70959 27140
L70940 27103
L70940 27028
L70959 26990
L70978 26971
L71015 26953
" />
<path d="M69315 27178
L69446 26990
" />
<path d="M69540 27178
L69540 26784
L69390 26784
L69353 26803
L69334 26821
L69315 26859
L69315 26915
L69334 26953
L69353 26971
L69390 26990
L69540 26990
" />
<path d="M69128 27178
L69053 27178
L69015 27159
L68996 27140
L68959 27084
L68940 27009
L68940 26859
L68959 26821
L68978 26803
L69015 26784
L69090 26784
L69128 26803
L69146 26821
L69165 26859
L69165 26953
L69146 26990
L69128 27009
L69090 27028
L69015 27028
L68978 27009
L68959 26990
L68940 26953
" />
<path d="M66607 25246
L66419 25115
" />
<path d="M66607 25021
L66213 25021
L66213 25171
L66232 25209
L66251 25228
L66288 25246
L66344 25246
L66382 25228
L66401 25209
L66419 25171
L66419 25021
" />
<path d="M66607 25621
L66607 25396
" />
<path d="M66607 25509
L66213 25509
L66269 25471
L66307 25434
L66326 25396
" />
<path d="M66213 25865
L66213 25903
L66232 25940
L66251 25959
L66288 25978
L66363 25996
L66457 25996
L66532 25978
L66569 25959
L66588 25940
L66607 25903
L66607 25865
L66588 25828
L66569 25809
L66532 25790
L66457 25771
L66363 25771
L66288 25790
L66251 25809
L66232 25828
L66213 25865
" />
<path d="M70607 25246
L70419 25115
" />
<path d="M70607 25021
L70213 25021
L70213 25171
L70232 25209
L70251 25228
L70288 25246
L70344 25246
L70382 25228
L70401 25209
L70419 25171
L70419 25021
" />
<path d="M70607 25621
L70607 25396
" />
<path d="M70607 25509
L70213 25509
L70269 25471
L70307 25434
L70326 25396
" />
<path d="M70607 25996
L70607 25771
" />
<path d="M70607 25884
L70213 25884
L70269 25846
L70307 25809
L70326 25771
" />
<path d="M67503 27178
L67634 26990
" />
<path d="M67728 27178
L67728 26784
L67578 26784
L67540 26803
L67521 26821
L67503 26859
L67503 26915
L67521 26953
L67540 26971
L67578 26990
L67728 26990
" />
<path d="M67128 27178
L67353 27178
" />
<path d="M67240 27178
L67240 26784
L67278 26840
L67315 26878
L67353 26896
" />
<path d="M66978 26821
L66959 26803
L66921 26784
L66828 26784
L66790 26803
L66771 26821
L66753 26859
L66753 26896
L66771 26953
L66996 27178
L66753 27178
" />
<path d="M84108 35746
L83921 35615
" />
<path d="M84108 35521
L83715 35521
L83715 35671
L83733 35709
L83752 35728
L83790 35746
L83846 35746
L83883 35728
L83902 35709
L83921 35671
L83921 35521
" />
<path d="M84108 36121
L84108 35896
" />
<path d="M84108 36009
L83715 36009
L83771 35971
L83808 35934
L83827 35896
" />
<path d="M83715 36459
L83715 36384
L83733 36346
L83752 36328
L83808 36290
L83883 36271
L84033 36271
L84071 36290
L84090 36309
L84108 36346
L84108 36421
L84090 36459
L84071 36478
L84033 36496
L83940 36496
L83902 36478
L83883 36459
L83865 36421
L83865 36346
L83883 36309
L83902 36290
L83940 36271
" />
<path d="M72253 31678
L72384 31490
" />
<path d="M72478 31678
L72478 31284
L72328 31284
L72290 31303
L72271 31321
L72253 31359
L72253 31415
L72271 31453
L72290 31471
L72328 31490
L72478 31490
" />
<path d="M71878 31678
L72103 31678
" />
<path d="M71990 31678
L71990 31284
L72028 31340
L72065 31378
L72103 31396
" />
<path d="M71746 31284
L71484 31284
L71653 31678
" />
<path d="M76003 31678
L76134 31490
" />
<path d="M76228 31678
L76228 31284
L76078 31284
L76040 31303
L76021 31321
L76003 31359
L76003 31415
L76021 31453
L76040 31471
L76078 31490
L76228 31490
" />
<path d="M75628 31678
L75853 31678
" />
<path d="M75740 31678
L75740 31284
L75778 31340
L75815 31378
L75853 31396
" />
<path d="M75403 31453
L75440 31434
L75459 31415
L75478 31378
L75478 31359
L75459 31321
L75440 31303
L75403 31284
L75328 31284
L75290 31303
L75271 31321
L75253 31359
L75253 31378
L75271 31415
L75290 31434
L75328 31453
L75403 31453
L75440 31471
L75459 31490
L75478 31528
L75478 31603
L75459 31640
L75440 31659
L75403 31678
L75328 31678
L75290 31659
L75271 31640
L75253 31603
L75253 31528
L75271 31490
L75290 31471
L75328 31453
" />
<path d="M80503 34508
L80634 34321
" />
<path d="M80728 34508
L80728 34115
L80578 34115
L80540 34133
L80521 34152
L80503 34190
L80503 34246
L80521 34283
L80540 34302
L80578 34321
L80728 34321
" />
<path d="M80128 34508
L80353 34508
" />
<path d="M80240 34508
L80240 34115
L80278 34171
L80315 34208
L80353 34227
" />
<path d="M79940 34508
L79865 34508
L79828 34490
L79809 34471
L79771 34415
L79753 34340
L79753 34190
L79771 34152
L79790 34133
L79828 34115
L79903 34115
L79940 34133
L79959 34152
L79978 34190
L79978 34283
L79959 34321
L79940 34340
L79903 34358
L79828 34358
L79790 34340
L79771 34321
L79753 34283
" />
<path d="M80503 37508
L80634 37321
" />
<path d="M80728 37508
L80728 37115
L80578 37115
L80540 37133
L80521 37152
L80503 37190
L80503 37246
L80521 37283
L80540 37302
L80578 37321
L80728 37321
" />
<path d="M80353 37152
L80334 37133
L80296 37115
L80203 37115
L80165 37133
L80146 37152
L80128 37190
L80128 37227
L80146 37283
L80371 37508
L80128 37508
" />
<path d="M79884 37115
L79846 37115
L79809 37133
L79790 37152
L79771 37190
L79753 37265
L79753 37358
L79771 37433
L79790 37471
L79809 37490
L79846 37508
L79884 37508
L79921 37490
L79940 37471
L79959 37433
L79978 37358
L79978 37265
L79959 37190
L79940 37152
L79921 37133
L79884 37115
" />
<path d="M77503 37508
L77634 37321
" />
<path d="M77728 37508
L77728 37115
L77578 37115
L77540 37133
L77521 37152
L77503 37190
L77503 37246
L77521 37283
L77540 37302
L77578 37321
L77728 37321
" />
<path d="M77353 37152
L77334 37133
L77296 37115
L77203 37115
L77165 37133
L77146 37152
L77128 37190
L77128 37227
L77146 37283
L77371 37508
L77128 37508
" />
<path d="M76753 37508
L76978 37508
" />
<path d="M76865 37508
L76865 37115
L76903 37171
L76940 37208
L76978 37227
" />
<path d="M77503 38758
L77634 38571
" />
<path d="M77728 38758
L77728 38365
L77578 38365
L77540 38383
L77521 38402
L77503 38440
L77503 38496
L77521 38533
L77540 38552
L77578 38571
L77728 38571
" />
<path d="M77353 38402
L77334 38383
L77296 38365
L77203 38365
L77165 38383
L77146 38402
L77128 38440
L77128 38477
L77146 38533
L77371 38758
L77128 38758
" />
<path d="M76978 38402
L76959 38383
L76921 38365
L76828 38365
L76790 38383
L76771 38402
L76753 38440
L76753 38477
L76771 38533
L76996 38758
L76753 38758
" />
<path d="M75549 24784
L75549 25103
L75531 25140
L75512 25159
L75474 25178
L75399 25178
L75362 25159
L75343 25140
L75324 25103
L75324 24784
" />
<path d="M75156 24821
L75137 24803
L75100 24784
L75006 24784
L74968 24803
L74950 24821
L74931 24859
L74931 24896
L74950 24953
L75175 25178
L74931 25178
" />
<path d="M64534 33450
L64853 33450
L64890 33468
L64909 33487
L64928 33525
L64928 33600
L64909 33637
L64890 33656
L64853 33675
L64534 33675
" />
<path d="M64534 33824
L64534 34068
L64684 33937
L64684 33993
L64703 34031
L64721 34049
L64759 34068
L64853 34068
L64890 34049
L64909 34031
L64928 33993
L64928 33881
L64909 33843
L64890 33824
" />
<path d="M63315 23928
L63446 23740
" />
<path d="M63540 23928
L63540 23534
L63390 23534
L63353 23553
L63334 23571
L63315 23609
L63315 23665
L63334 23703
L63353 23721
L63390 23740
L63540 23740
" />
<path d="M62940 23928
L63165 23928
" />
<path d="M63053 23928
L63053 23534
L63090 23590
L63128 23628
L63165 23646
" />
<path d="M61065 29097
L61196 28909
" />
<path d="M61290 29097
L61290 28703
L61140 28703
L61103 28722
L61084 28741
L61065 28778
L61065 28834
L61084 28872
L61103 28891
L61140 28909
L61290 28909
" />
<path d="M60934 28703
L60690 28703
L60821 28853
L60765 28853
L60728 28872
L60709 28891
L60690 28928
L60690 29022
L60709 29059
L60728 29078
L60765 29097
L60878 29097
L60915 29078
L60934 29059
" />
<path d="M64565 26758
L64696 26571
" />
<path d="M64790 26758
L64790 26365
L64640 26365
L64603 26383
L64584 26402
L64565 26440
L64565 26496
L64584 26533
L64603 26552
L64640 26571
L64790 26571
" />
<path d="M64228 26496
L64228 26758
" />
<path d="M64321 26346
L64415 26627
L64171 26627
" />
<path d="M64678 25246
L64490 25115
" />
<path d="M64678 25021
L64284 25021
L64284 25171
L64303 25209
L64321 25228
L64359 25246
L64415 25246
L64453 25228
L64471 25209
L64490 25171
L64490 25021
" />
<path d="M64678 25621
L64678 25396
" />
<path d="M64678 25509
L64284 25509
L64340 25471
L64378 25434
L64396 25396
" />
<path d="M64284 25753
L64284 25996
L64434 25865
L64434 25921
L64453 25959
L64471 25978
L64509 25996
L64603 25996
L64640 25978
L64659 25959
L64678 25921
L64678 25809
L64659 25771
L64640 25753
" />
<path d="M67678 25246
L67490 25115
" />
<path d="M67678 25021
L67284 25021
L67284 25171
L67303 25209
L67321 25228
L67359 25246
L67415 25246
L67453 25228
L67471 25209
L67490 25171
L67490 25021
" />
<path d="M67678 25621
L67678 25396
" />
<path d="M67678 25509
L67284 25509
L67340 25471
L67378 25434
L67396 25396
" />
<path d="M67415 25959
L67678 25959
" />
<path d="M67265 25865
L67546 25771
L67546 26015
" />
</g> 
</svg>
