<?xml version="1.0" standalone="no"?>
 <!DOCTYPE svg PUBLIC "-//W3C//DTD SVG 1.1//EN" 
 "http://www.w3.org/Graphics/SVG/1.1/DTD/svg11.dtd"> 
<svg xmlns="http://www.w3.org/2000/svg" version="1.1" 
    width="27.94cm" height="21.59cm" viewBox="0 0 110000 85000 ">
<title>SVG Picture created as Thermometer-Shield-F.SilkS.svg date 2017/07/12 20:46:00 </title>
  <desc>Picture generated by PCBNEW </desc>
<g style="fill:#000000; fill-opacity:1;stroke:#000000; stroke-opacity:1;
stroke-linecap:round; stroke-linejoin:round; "
 transform="translate(0 0) scale(1 1)">
</g>
<g style="fill:#000000; fill-opacity:0.0; 
stroke:#000000; stroke-width:-0.000393701; stroke-opacity:1; 
stroke-linecap:round; stroke-linejoin:round;">
</g>
<g style="fill:#000000; fill-opacity:0.0; 
stroke:#000000; stroke-width:98.4252; stroke-opacity:1; 
stroke-linecap:round; stroke-linejoin:round;">
<path d="M59978 22409
L60034 22428
L60128 22428
L60165 22409
L60184 22390
L60203 22353
L60203 22315
L60184 22278
L60165 22259
L60128 22240
L60053 22221
L60015 22203
L59997 22184
L59978 22146
L59978 22109
L59997 22071
L60015 22053
L60053 22034
L60146 22034
L60203 22053
" />
<path d="M60371 22428
L60371 22034
" />
<path d="M60540 22428
L60540 22221
L60521 22184
L60484 22165
L60428 22165
L60390 22184
L60371 22203
" />
<path d="M60728 22428
L60728 22165
" />
<path d="M60728 22034
L60709 22053
L60728 22071
L60746 22053
L60728 22034
L60728 22071
" />
<path d="M60859 22165
L61009 22165
" />
<path d="M60915 22428
L60915 22090
L60934 22053
L60971 22034
L61009 22034
" />
<path d="M61084 22165
L61234 22165
" />
<path d="M61140 22034
L61140 22371
L61159 22409
L61196 22428
L61234 22428
" />
<path d="M61365 22278
L61665 22278
" />
<path d="M61834 22315
L62021 22315
" />
<path d="M61796 22428
L61928 22034
L62059 22428
" />
</g>
<g style="fill:#000000; fill-opacity:0.0; 
stroke:#000000; stroke-width:118.11; stroke-opacity:1; 
stroke-linecap:round; stroke-linejoin:round;">
<path d="M70881 23517
L70881 22926
" />
<path d="M71584 22898
L71078 23657
" />
<path d="M71893 22926
L72006 22926
L72062 22954
L72118 23010
L72146 23123
L72146 23320
L72118 23432
L72062 23489
L72006 23517
L71893 23517
L71837 23489
L71781 23432
L71753 23320
L71753 23123
L71781 23010
L71837 22954
L71893 22926
" />
</g>
<g style="fill:#000000; fill-opacity:0.0; 
stroke:#000000; stroke-width:78.7402; stroke-opacity:1; 
stroke-linecap:round; stroke-linejoin:round;">
<path d="M65000 33250
L65500 33250
" />
<path d="M64500 32750
L65000 33250
" />
</g>
<g style="fill:#000000; fill-opacity:0.0; 
stroke:#000000; stroke-width:118.11; stroke-opacity:1; 
stroke-linecap:round; stroke-linejoin:round;">
<path d="M65081 33017
L65081 32426
" />
<path d="M65081 32707
L65418 32707
" />
<path d="M65418 33017
L65418 32426
" />
<path d="M65404 31454
L65348 31426
L65264 31426
L65179 31454
L65123 31510
L65095 31567
L65067 31679
L65067 31764
L65095 31876
L65123 31932
L65179 31989
L65264 32017
L65320 32017
L65404 31989
L65432 31960
L65432 31764
L65320 31764
" />
</g>
<g style="fill:#000000; fill-opacity:0.0; 
stroke:#000000; stroke-width:98.4252; stroke-opacity:1; 
stroke-linecap:round; stroke-linejoin:round;">
<path d="M65775 33034
L66000 33034
" />
<path d="M65887 33428
L65887 33034
" />
<path d="M66131 33428
L66131 33165
" />
<path d="M66131 33240
L66150 33203
L66168 33184
L66206 33165
L66243 33165
" />
<path d="M66375 33428
L66375 33165
" />
<path d="M66375 33034
L66356 33053
L66375 33071
L66393 33053
L66375 33034
L66375 33071
" />
<path d="M66731 33165
L66731 33484
L66712 33521
L66693 33540
L66656 33559
L66600 33559
L66562 33540
" />
<path d="M66731 33409
L66693 33428
L66618 33428
L66581 33409
L66562 33390
L66543 33353
L66543 33240
L66562 33203
L66581 33184
L66618 33165
L66693 33165
L66731 33184
" />
<path d="M67087 33165
L67087 33484
L67068 33521
L67049 33540
L67012 33559
L66956 33559
L66918 33540
" />
<path d="M67087 33409
L67049 33428
L66974 33428
L66937 33409
L66918 33390
L66899 33353
L66899 33240
L66918 33203
L66937 33184
L66974 33165
L67049 33165
L67087 33184
" />
<path d="M67424 33409
L67387 33428
L67312 33428
L67274 33409
L67256 33371
L67256 33221
L67274 33184
L67312 33165
L67387 33165
L67424 33184
L67443 33221
L67443 33259
L67256 33296
" />
<path d="M67612 33428
L67612 33165
" />
<path d="M67612 33240
L67631 33203
L67649 33184
L67687 33165
L67724 33165
" />
</g>
<g style="fill:#000000; fill-opacity:0.0; 
stroke:#000000; stroke-width:118.11; stroke-opacity:1; 
stroke-linecap:round; stroke-linejoin:round;">
<path d="M66315 29176
L66428 29176
L66484 29204
L66540 29260
L66568 29373
L66568 29570
L66540 29682
L66484 29739
L66428 29767
L66315 29767
L66259 29739
L66203 29682
L66175 29570
L66175 29373
L66203 29260
L66259 29204
L66315 29176
" />
<path d="M67075 29373
L67075 29767
" />
<path d="M66821 29373
L66821 29682
L66850 29739
L66906 29767
L66990 29767
L67046 29739
L67075 29710
" />
<path d="M67271 29373
L67496 29373
" />
<path d="M67356 29176
L67356 29682
L67384 29739
L67440 29767
L67496 29767
" />
<path d="M67693 29373
L67693 29964
" />
<path d="M67693 29401
L67750 29373
L67862 29373
L67918 29401
L67946 29429
L67974 29485
L67974 29654
L67946 29710
L67918 29739
L67862 29767
L67750 29767
L67693 29739
" />
<path d="M68481 29373
L68481 29767
" />
<path d="M68228 29373
L68228 29682
L68256 29739
L68312 29767
L68396 29767
L68453 29739
L68481 29710
" />
<path d="M68678 29373
L68902 29373
" />
<path d="M68762 29176
L68762 29682
L68790 29739
L68846 29767
L68902 29767
" />
<path d="M69071 29739
L69127 29767
L69240 29767
L69296 29739
L69324 29682
L69324 29654
L69296 29598
L69240 29570
L69156 29570
L69099 29542
L69071 29485
L69071 29457
L69099 29401
L69156 29373
L69240 29373
L69296 29401
" />
</g>
<g style="fill:#000000; fill-opacity:0.0; 
stroke:#000000; stroke-width:78.7402; stroke-opacity:1; 
stroke-linecap:round; stroke-linejoin:round;">
<path d="M69000 32750
L69000 31500
" />
<path d="M68000 31500
L68000 32750
" />
<path d="M67000 31500
L67000 32750
" />
<path d="M70000 31500
L66000 31500
" />
<path d="M66000 32750
L70000 32750
" />
<path d="M66000 30250
L66000 32750
" />
<path d="M70000 30250
L66000 30250
" />
<path d="M70000 32750
L70000 30250
" />
</g>
<g style="fill:#000000; fill-opacity:0.0; 
stroke:#000000; stroke-width:98.4252; stroke-opacity:1; 
stroke-linecap:round; stroke-linejoin:round;">
<path d="M66668 30951
L66650 30970
L66593 30989
L66556 30989
L66500 30970
L66462 30932
L66443 30895
L66425 30820
L66425 30764
L66443 30689
L66462 30651
L66500 30614
L66556 30595
L66593 30595
L66650 30614
L66668 30632
" />
<path d="M66893 30989
L66856 30970
L66837 30951
L66818 30914
L66818 30801
L66837 30764
L66856 30745
L66893 30726
L66950 30726
L66987 30745
L67006 30764
L67025 30801
L67025 30914
L67006 30951
L66987 30970
L66950 30989
L66893 30989
" />
<path d="M67193 30989
L67193 30726
" />
<path d="M67193 30764
L67212 30745
L67250 30726
L67306 30726
L67343 30745
L67362 30782
L67362 30989
" />
<path d="M67362 30782
L67381 30745
L67418 30726
L67475 30726
L67512 30745
L67531 30782
L67531 30989
" />
<path d="M67718 30989
L67718 30726
" />
<path d="M67718 30764
L67737 30745
L67775 30726
L67831 30726
L67868 30745
L67887 30782
L67887 30989
" />
<path d="M67887 30782
L67906 30745
L67943 30726
L68000 30726
L68037 30745
L68056 30782
L68056 30989
" />
<path d="M68299 30989
L68262 30970
L68243 30951
L68224 30914
L68224 30801
L68243 30764
L68262 30745
L68299 30726
L68356 30726
L68393 30745
L68412 30764
L68431 30801
L68431 30914
L68412 30951
L68393 30970
L68356 30989
L68299 30989
" />
<path d="M68599 30726
L68599 30989
" />
<path d="M68599 30764
L68618 30745
L68656 30726
L68712 30726
L68749 30745
L68768 30782
L68768 30989
" />
<path d="M69256 30839
L69556 30839
" />
<path d="M69406 30989
L69406 30689
" />
<path d="M66443 32160
L66575 32160
" />
<path d="M66631 32367
L66443 32367
L66443 31973
L66631 31973
" />
<path d="M67531 32160
L67400 32160
" />
<path d="M67400 32367
L67400 31973
L67587 31973
" />
<path d="M68543 31992
L68506 31973
L68449 31973
L68393 31992
L68356 32029
L68337 32067
L68318 32142
L68318 32198
L68337 32273
L68356 32310
L68393 32348
L68449 32367
L68487 32367
L68543 32348
L68562 32329
L68562 32198
L68487 32198
" />
<path d="M69331 32367
L69331 31973
" />
<path d="M69331 32160
L69556 32160
" />
<path d="M69556 32367
L69556 31973
" />
</g>
<g style="fill:#000000; fill-opacity:0.0; 
stroke:#000000; stroke-width:78.7402; stroke-opacity:1; 
stroke-linecap:round; stroke-linejoin:round;">
<path d="M75250 30250
L74500 29500
" />
</g>
<g style="fill:#000000; fill-opacity:0.0; 
stroke:#000000; stroke-width:98.4252; stroke-opacity:1; 
stroke-linecap:round; stroke-linejoin:round;">
<path d="M73450 29409
L73506 29428
L73600 29428
L73637 29409
L73656 29390
L73675 29353
L73675 29315
L73656 29278
L73637 29259
L73600 29240
L73525 29221
L73487 29203
L73468 29184
L73450 29146
L73450 29109
L73468 29071
L73487 29053
L73525 29034
L73618 29034
L73675 29053
" />
<path d="M73843 29428
L73843 29034
" />
<path d="M74012 29428
L74012 29221
L73993 29184
L73956 29165
L73900 29165
L73862 29184
L73843 29203
" />
<path d="M74200 29428
L74200 29165
" />
<path d="M74200 29034
L74181 29053
L74200 29071
L74218 29053
L74200 29034
L74200 29071
" />
<path d="M74331 29165
L74481 29165
" />
<path d="M74387 29428
L74387 29090
L74406 29053
L74443 29034
L74481 29034
" />
<path d="M74556 29165
L74706 29165
" />
<path d="M74612 29034
L74612 29371
L74631 29409
L74668 29428
L74706 29428
" />
<path d="M74837 29278
L75137 29278
" />
<path d="M75456 29221
L75512 29240
L75531 29259
L75549 29296
L75549 29353
L75531 29390
L75512 29409
L75474 29428
L75324 29428
L75324 29034
L75456 29034
L75493 29053
L75512 29071
L75531 29109
L75531 29146
L75512 29184
L75493 29203
L75456 29221
L75324 29221
" />
</g>
<g style="fill:#000000; fill-opacity:0.0; 
stroke:#000000; stroke-width:118.11; stroke-opacity:1; 
stroke-linecap:round; stroke-linejoin:round;">
<path d="M72387 22767
L72500 22767
L72556 22739
L72584 22710
L72640 22626
L72668 22514
L72668 22289
L72640 22232
L72612 22204
L72556 22176
L72443 22176
L72387 22204
L72359 22232
L72331 22289
L72331 22429
L72359 22485
L72387 22514
L72443 22542
L72556 22542
L72612 22514
L72640 22485
L72668 22429
" />
<path d="M70137 22767
L69800 22767
" />
<path d="M69968 22767
L69968 22176
L69912 22260
L69856 22317
L69800 22345
" />
<path d="M70362 22232
L70390 22204
L70446 22176
L70587 22176
L70643 22204
L70671 22232
L70699 22289
L70699 22345
L70671 22429
L70334 22767
L70699 22767
" />
</g>
<g style="fill:#000000; fill-opacity:0.0; 
stroke:#000000; stroke-width:78.7402; stroke-opacity:1; 
stroke-linecap:round; stroke-linejoin:round;">
<path d="M75750 35500
L76250 35000
" />
<path d="M76500 35500
L77000 35000
" />
</g>
<g style="fill:#000000; fill-opacity:0.0; 
stroke:#000000; stroke-width:98.4252; stroke-opacity:1; 
stroke-linecap:round; stroke-linejoin:round;">
<path d="M76565 36728
L76565 36540
" />
<path d="M76678 36765
L76284 36634
L76678 36503
" />
<path d="M76678 36371
L76284 36371
L76284 36278
L76303 36221
L76340 36184
L76378 36165
L76453 36146
L76509 36146
L76584 36165
L76621 36184
L76659 36221
L76678 36278
L76678 36371
" />
<path d="M76284 36015
L76284 35771
L76434 35903
L76434 35846
L76453 35809
L76471 35790
L76509 35771
L76603 35771
L76640 35790
L76659 35809
L76678 35846
L76678 35959
L76659 35996
L76640 36015
" />
<path d="M75815 36728
L75815 36540
" />
<path d="M75928 36765
L75534 36634
L75928 36503
" />
<path d="M75928 36371
L75534 36371
L75534 36278
L75553 36221
L75590 36184
L75628 36165
L75703 36146
L75759 36146
L75834 36165
L75871 36184
L75909 36221
L75928 36278
L75928 36371
" />
<path d="M75571 35996
L75553 35978
L75534 35940
L75534 35846
L75553 35809
L75571 35790
L75609 35771
L75646 35771
L75703 35790
L75928 36015
L75928 35771
" />
</g>
<g style="fill:#000000; fill-opacity:0.0; 
stroke:#000000; stroke-width:118.11; stroke-opacity:1; 
stroke-linecap:round; stroke-linejoin:round;">
<path d="M84517 37326
L83926 37326
" />
<path d="M83982 37073
L83954 37045
L83926 36989
L83926 36848
L83954 36792
L83982 36764
L84039 36735
L84095 36735
L84179 36764
L84517 37101
L84517 36735
" />
<path d="M84460 36145
L84489 36173
L84517 36257
L84517 36314
L84489 36398
L84432 36454
L84376 36482
L84264 36510
L84179 36510
L84067 36482
L84010 36454
L83954 36398
L83926 36314
L83926 36257
L83954 36173
L83982 36145
" />
<path d="M77300 37834
L78199 37834
" />
<path d="M77300 35834
L78199 35834
" />
<path d="M77750 36284
L77750 35384
" />
<path d="M76423 30489
L76507 30517
L76648 30517
L76704 30489
L76732 30460
L76760 30404
L76760 30348
L76732 30292
L76704 30264
L76648 30235
L76535 30207
L76479 30179
L76451 30151
L76423 30095
L76423 30039
L76451 29982
L76479 29954
L76535 29926
L76676 29926
L76760 29954
" />
<path d="M77239 30489
L77182 30517
L77070 30517
L77014 30489
L76985 30432
L76985 30207
L77014 30151
L77070 30123
L77182 30123
L77239 30151
L77267 30207
L77267 30264
L76985 30320
" />
<path d="M77604 30517
L77548 30489
L77520 30432
L77520 29926
" />
<path d="M71015 30517
L71015 29926
L71212 30348
L71409 29926
L71409 30517
" />
<path d="M71775 30517
L71718 30489
L71690 30460
L71662 30404
L71662 30235
L71690 30179
L71718 30151
L71775 30123
L71859 30123
L71915 30151
L71943 30179
L71971 30235
L71971 30404
L71943 30460
L71915 30489
L71859 30517
L71775 30517
" />
<path d="M72478 30517
L72478 29926
" />
<path d="M72478 30489
L72421 30517
L72309 30517
L72253 30489
L72224 30460
L72196 30404
L72196 30235
L72224 30179
L72253 30151
L72309 30123
L72421 30123
L72478 30151
" />
<path d="M72984 30489
L72928 30517
L72815 30517
L72759 30489
L72731 30432
L72731 30207
L72759 30151
L72815 30123
L72928 30123
L72984 30151
L73012 30207
L73012 30264
L72731 30320
" />
<path d="M71847 33926
L71959 33926
L72015 33954
L72071 34010
L72100 34123
L72100 34320
L72071 34432
L72015 34489
L71959 34517
L71847 34517
L71790 34489
L71734 34432
L71706 34320
L71706 34123
L71734 34010
L71790 33954
L71847 33926
" />
<path d="M72606 34123
L72606 34517
" />
<path d="M72353 34123
L72353 34432
L72381 34489
L72437 34517
L72521 34517
L72578 34489
L72606 34460
" />
<path d="M72803 34123
L73028 34123
" />
<path d="M72887 33926
L72887 34432
L72915 34489
L72971 34517
L73028 34517
" />
<path d="M73224 34292
L73674 34292
" />
<path d="M73956 34517
L73956 33926
L74096 33926
L74181 33954
L74237 34010
L74265 34067
L74293 34179
L74293 34264
L74265 34376
L74237 34432
L74181 34489
L74096 34517
L73956 34517
" />
<path d="M67847 33926
L67959 33926
L68015 33954
L68071 34010
L68100 34123
L68100 34320
L68071 34432
L68015 34489
L67959 34517
L67847 34517
L67790 34489
L67734 34432
L67706 34320
L67706 34123
L67734 34010
L67790 33954
L67847 33926
" />
<path d="M68606 34123
L68606 34517
" />
<path d="M68353 34123
L68353 34432
L68381 34489
L68437 34517
L68521 34517
L68578 34489
L68606 34460
" />
<path d="M68803 34123
L69028 34123
" />
<path d="M68887 33926
L68887 34432
L68915 34489
L68971 34517
L69028 34517
" />
<path d="M69224 34292
L69674 34292
" />
<path d="M70293 34460
L70265 34489
L70181 34517
L70124 34517
L70040 34489
L69984 34432
L69956 34376
L69928 34264
L69928 34179
L69956 34067
L69984 34010
L70040 33954
L70124 33926
L70181 33926
L70265 33954
L70293 33982
" />
<path d="M63847 33926
L63959 33926
L64015 33954
L64071 34010
L64100 34123
L64100 34320
L64071 34432
L64015 34489
L63959 34517
L63847 34517
L63790 34489
L63734 34432
L63706 34320
L63706 34123
L63734 34010
L63790 33954
L63847 33926
" />
<path d="M64606 34123
L64606 34517
" />
<path d="M64353 34123
L64353 34432
L64381 34489
L64437 34517
L64521 34517
L64578 34489
L64606 34460
" />
<path d="M64803 34123
L65028 34123
" />
<path d="M64887 33926
L64887 34432
L64915 34489
L64971 34517
L65028 34517
" />
<path d="M65224 34292
L65674 34292
" />
<path d="M66152 34207
L66237 34235
L66265 34264
L66293 34320
L66293 34404
L66265 34460
L66237 34489
L66181 34517
L65956 34517
L65956 33926
L66152 33926
L66209 33954
L66237 33982
L66265 34039
L66265 34095
L66237 34151
L66209 34179
L66152 34207
L65956 34207
" />
<path d="M59889 33926
L60001 33926
L60057 33954
L60114 34010
L60142 34123
L60142 34320
L60114 34432
L60057 34489
L60001 34517
L59889 34517
L59832 34489
L59776 34432
L59748 34320
L59748 34123
L59776 34010
L59832 33954
L59889 33926
" />
<path d="M60648 34123
L60648 34517
" />
<path d="M60395 34123
L60395 34432
L60423 34489
L60479 34517
L60564 34517
L60620 34489
L60648 34460
" />
<path d="M60845 34123
L61070 34123
" />
<path d="M60929 33926
L60929 34432
L60957 34489
L61014 34517
L61070 34517
" />
<path d="M61267 34292
L61717 34292
" />
<path d="M61970 34348
L62251 34348
" />
<path d="M61913 34517
L62110 33926
L62307 34517
" />
</g>
<g style="fill:#000000; fill-opacity:0.0; 
stroke:#000000; stroke-width:47.2441; stroke-opacity:1; 
stroke-linecap:round; stroke-linejoin:round;">
<path d="M70956 34519
L70956 39480
" />
<path d="M70956 39480
L75031 39480
" />
<path d="M75031 39480
L75031 39106
" />
<path d="M75031 39106
L75228 39204
" />
<path d="M75228 39204
L75228 38456
" />
<path d="M75228 38456
L75228 38437
" />
<path d="M75228 38437
L75031 38535
" />
<path d="M75031 38535
L75031 36409
" />
<path d="M75031 36409
L75228 36527
" />
<path d="M75228 36527
L75228 34519
" />
<path d="M75228 34519
L70956 34519
" />
<path d="M62956 34519
L62956 39480
" />
<path d="M62956 39480
L67031 39480
" />
<path d="M67031 39480
L67031 39106
" />
<path d="M67031 39106
L67228 39204
" />
<path d="M67228 39204
L67228 38456
" />
<path d="M67228 38456
L67228 38437
" />
<path d="M67228 38437
L67031 38535
" />
<path d="M67031 38535
L67031 36409
" />
<path d="M67031 36409
L67228 36527
" />
<path d="M67228 36527
L67228 34519
" />
<path d="M67228 34519
L62956 34519
" />
<path d="M66956 34519
L66956 39480
" />
<path d="M66956 39480
L71031 39480
" />
<path d="M71031 39480
L71031 39106
" />
<path d="M71031 39106
L71228 39204
" />
<path d="M71228 39204
L71228 38456
" />
<path d="M71228 38456
L71228 38437
" />
<path d="M71228 38437
L71031 38535
" />
<path d="M71031 38535
L71031 36409
" />
<path d="M71031 36409
L71228 36527
" />
<path d="M71228 36527
L71228 34519
" />
<path d="M71228 34519
L66956 34519
" />
</g>
<g style="fill:#000000; fill-opacity:0.0; 
stroke:#000000; stroke-width:59.0551; stroke-opacity:1; 
stroke-linecap:round; stroke-linejoin:round;">
<path d="M60625 28718
L76374 28718
" />
<path d="M60625 23797
L76374 23797
" />
<path d="M60625 28718
L60625 23797
" />
<path d="M76374 28718
L60625 28718
" />
<path d="M68500 23797
L76374 23797
" />
<path d="M76374 23797
L76374 28718
" />
</g>
<g style="fill:#000000; fill-opacity:0.0; 
stroke:#000000; stroke-width:47.2441; stroke-opacity:1; 
stroke-linecap:round; stroke-linejoin:round;">
<path d="M62541 23728
L63958 23728
" />
<path d="M63250 21976.4 A1023.62 1023.62 0.0 0 0 62526.2 23723.8 " />
<path d="M63973.8 23723.8 A1023.62 1023.62 0.0 0 0 63250 21976.4 " />
<path d="M60458 29521
L59041 29521
" />
<path d="M59750 31273.6 A1023.62 1023.62 0.0 0 0 60473.8 29526.2 " />
<path d="M59026.2 29526.2 A1023.62 1023.62 0.0 0 0 59750 31273.6 " />
<path d="M62708 29521
L61291 29521
" />
<path d="M62000 31273.6 A1023.62 1023.62 0.0 0 0 62723.8 29526.2 " />
<path d="M61276.2 29526.2 A1023.62 1023.62 0.0 0 0 62000 31273.6 " />
<path d="M64958 29521
L63541 29521
" />
<path d="M64250 31273.6 A1023.62 1023.62 0.0 0 0 64973.8 29526.2 " />
<path d="M63526.2 29526.2 A1023.62 1023.62 0.0 0 0 64250 31273.6 " />
<path d="M71193 33565
L72965 33565
" />
<path d="M70701 31990
L70701 32581
" />
<path d="M72965 31006
L71193 31006
" />
<path d="M73457 32581
L73457 31990
" />
<path d="M74993 33565
L76765 33565
" />
<path d="M74501 31990
L74501 32581
" />
<path d="M76765 31006
L74993 31006
" />
<path d="M77257 32581
L77257 31990
" />
<path d="M79393 39165
L81165 39165
" />
<path d="M78901 37590
L78901 38181
" />
<path d="M81165 36606
L79393 36606
" />
<path d="M81657 38181
L81657 37590
" />
<path d="M79393 36165
L81165 36165
" />
<path d="M78901 34590
L78901 35181
" />
<path d="M81165 33606
L79393 33606
" />
<path d="M81657 35181
L81657 34590
" />
<path d="M79300 33123
L82323 33123
" />
<path d="M82323 33123
L82323 32076
" />
<path d="M82323 32076
L79300 32076
" />
<path d="M79300 32076
L79300 33123
" />
<path d="M78800 33123
L78276 33123
" />
<path d="M78276 33123
L78276 32600
" />
<path d="M76750 33976
L75726 33976
" />
<path d="M75726 33976
L75726 35023
" />
<path d="M75726 35023
L76750 35023
" />
<path d="M76750 35023
L76750 33976
" />
<path d="M77250 33976
L77773 33976
" />
<path d="M77773 33976
L77773 34500
" />
<path d="M83523 38500
L83523 35476
" />
<path d="M83523 35476
L82476 35476
" />
<path d="M82476 35476
L82476 38500
" />
<path d="M82476 38500
L83523 38500
" />
<path d="M83523 39000
L83523 39523
" />
<path d="M83523 39523
L83000 39523
" />
<path d="M72976 23250
L72976 23273
" />
<path d="M72976 23273
L74023 23273
" />
<path d="M74023 23273
L74023 23250
" />
<path d="M74023 23250
L72976 23250
" />
<path d="M72976 22750
L72976 22226
" />
<path d="M72976 22226
L73500 22226
" />
<path d="M61000 33523
L64023 33523
" />
<path d="M64023 33523
L64023 31476
" />
<path d="M64023 31476
L59976 31476
" />
<path d="M59976 31476
L59976 32500
" />
<path d="M59976 32500
L61000 32500
" />
<path d="M61000 32500
L61000 33523
" />
<path d="M60500 33523
L59976 33523
" />
<path d="M59976 33523
L59976 33000
" />
<path d="M58956 34519
L58956 39480
" />
<path d="M58956 39480
L63031 39480
" />
<path d="M63031 39480
L63031 39106
" />
<path d="M63031 39106
L63228 39204
" />
<path d="M63228 39204
L63228 38456
" />
<path d="M63228 38456
L63228 38437
" />
<path d="M63228 38437
L63031 38535
" />
<path d="M63031 38535
L63031 36409
" />
<path d="M63031 36409
L63228 36527
" />
<path d="M63228 36527
L63228 34519
" />
<path d="M63228 34519
L58956 34519
" />
<path d="M68726 23250
L68726 23273
" />
<path d="M68726 23273
L69773 23273
" />
<path d="M69773 23273
L69773 23250
" />
<path d="M69773 23250
L68726 23250
" />
<path d="M68726 22750
L68726 22226
" />
<path d="M68726 22226
L69250 22226
" />
<circle cx="84000" cy="33669.3" r="1299.81" /> 
<path d="M76523 23265
L74507 23265
" />
<path d="M76523 22234
L74507 22234
" />
<path d="M76523 23265
L76523 23142
" />
<path d="M76523 22357
L76523 22234
" />
<path d="M74507 23265
L74507 23142
" />
<path d="M74507 22357
L74507 22234
" />
<path d="M60015 23976
L60015 25992
" />
<path d="M58984 23976
L58984 25992
" />
<path d="M60015 23976
L59892 23976
" />
<path d="M59107 23976
L58984 23976
" />
<path d="M60015 25992
L59892 25992
" />
<path d="M59107 25992
L58984 25992
" />
</g>
<g style="fill:#000000; fill-opacity:0.0; 
stroke:#000000; stroke-width:120; stroke-opacity:1; 
stroke-linecap:round; stroke-linejoin:round;">
<path d="M59021 19242
L59107 19271
L59250 19271
L59307 19242
L59335 19214
L59364 19157
L59364 19100
L59335 19042
L59307 19014
L59250 18985
L59135 18957
L59078 18928
L59050 18900
L59021 18842
L59021 18785
L59050 18728
L59078 18700
L59135 18671
L59278 18671
L59364 18700
" />
<path d="M59621 19271
L59621 18671
" />
<path d="M59621 18957
L59964 18957
" />
<path d="M59964 19271
L59964 18671
" />
<path d="M60250 19271
L60250 18671
" />
<path d="M60535 18957
L60735 18957
" />
<path d="M60821 19271
L60535 19271
L60535 18671
L60821 18671
" />
<path d="M61364 19271
L61078 19271
L61078 18671
" />
<path d="M61564 19271
L61564 18671
L61707 18671
L61792 18700
L61849 18757
L61878 18814
L61907 18928
L61907 19014
L61878 19128
L61849 19185
L61792 19242
L61707 19271
L61564 19271
" />
<path d="M62478 19271
L62135 19271
" />
<path d="M62307 19271
L62307 18671
L62249 18757
L62192 18814
L62135 18842
" />
</g>
<g style="fill:#000000; fill-opacity:0.0; 
stroke:#000000; stroke-width:59.0551; stroke-opacity:1; 
stroke-linecap:round; stroke-linejoin:round;">
<path d="M72931 35284
L72931 35565
L72912 35621
L72875 35659
L72818 35678
L72781 35678
" />
<path d="M73324 35678
L73100 35678
" />
<path d="M73212 35678
L73212 35284
L73175 35340
L73137 35378
L73100 35396
" />
<path d="M73456 35284
L73699 35284
L73568 35434
L73624 35434
L73662 35453
L73681 35471
L73699 35509
L73699 35603
L73681 35640
L73662 35659
L73624 35678
L73512 35678
L73474 35659
L73456 35640
" />
<path d="M64931 35284
L64931 35565
L64912 35621
L64875 35659
L64818 35678
L64781 35678
" />
<path d="M65324 35678
L65100 35678
" />
<path d="M65212 35678
L65212 35284
L65175 35340
L65137 35378
L65100 35396
" />
<path d="M65699 35678
L65474 35678
" />
<path d="M65587 35678
L65587 35284
L65549 35340
L65512 35378
L65474 35396
" />
<path d="M68931 35284
L68931 35565
L68912 35621
L68875 35659
L68818 35678
L68781 35678
" />
<path d="M69324 35678
L69100 35678
" />
<path d="M69212 35678
L69212 35284
L69175 35340
L69137 35378
L69100 35396
" />
<path d="M69474 35321
L69493 35303
L69531 35284
L69624 35284
L69662 35303
L69681 35321
L69699 35359
L69699 35396
L69681 35453
L69456 35678
L69699 35678
" />
<path d="M67778 27124
L67778 26731
L67871 26731
L67928 26750
L67965 26787
L67984 26824
L68003 26899
L68003 26956
L67984 27031
L67965 27068
L67928 27106
L67871 27124
L67778 27124
" />
<path d="M68171 27124
L68171 26862
" />
<path d="M68171 26731
L68153 26750
L68171 26768
L68190 26750
L68171 26731
L68171 26768
" />
<path d="M68340 27106
L68378 27124
L68453 27124
L68490 27106
L68509 27068
L68509 27049
L68490 27012
L68453 26993
L68396 26993
L68359 26974
L68340 26937
L68340 26918
L68359 26881
L68396 26862
L68453 26862
L68490 26881
" />
<path d="M68678 26862
L68678 27256
" />
<path d="M68678 26881
L68715 26862
L68790 26862
L68828 26881
L68846 26899
L68865 26937
L68865 27049
L68846 27087
L68828 27106
L68790 27124
L68715 27124
L68678 27106
" />
<path d="M69240 27124
L69015 27124
" />
<path d="M69128 27124
L69128 26731
L69090 26787
L69053 26824
L69015 26843
" />
<path d="M63212 22465
L63175 22446
L63137 22409
L63081 22353
L63043 22334
L63006 22334
" />
<path d="M63025 22428
L62987 22409
L62950 22371
L62931 22296
L62931 22165
L62950 22090
L62987 22053
L63025 22034
L63100 22034
L63137 22053
L63175 22090
L63193 22165
L63193 22296
L63175 22371
L63137 22409
L63100 22428
L63025 22428
" />
<path d="M63568 22428
L63343 22428
" />
<path d="M63456 22428
L63456 22034
L63418 22090
L63381 22128
L63343 22146
" />
<path d="M59712 31215
L59675 31196
L59637 31159
L59581 31103
L59543 31084
L59506 31084
" />
<path d="M59525 31178
L59487 31159
L59450 31121
L59431 31046
L59431 30915
L59450 30840
L59487 30803
L59525 30784
L59600 30784
L59637 30803
L59675 30840
L59693 30915
L59693 31046
L59675 31121
L59637 31159
L59600 31178
L59525 31178
" />
<path d="M59843 30821
L59862 30803
L59899 30784
L59993 30784
L60031 30803
L60049 30821
L60068 30859
L60068 30896
L60049 30953
L59824 31178
L60068 31178
" />
<path d="M61962 31215
L61925 31196
L61887 31159
L61831 31103
L61793 31084
L61756 31084
" />
<path d="M61775 31178
L61737 31159
L61700 31121
L61681 31046
L61681 30915
L61700 30840
L61737 30803
L61775 30784
L61850 30784
L61887 30803
L61925 30840
L61943 30915
L61943 31046
L61925 31121
L61887 31159
L61850 31178
L61775 31178
" />
<path d="M62074 30784
L62318 30784
L62187 30934
L62243 30934
L62281 30953
L62299 30971
L62318 31009
L62318 31103
L62299 31140
L62281 31159
L62243 31178
L62131 31178
L62093 31159
L62074 31140
" />
<path d="M64212 31215
L64175 31196
L64137 31159
L64081 31103
L64043 31084
L64006 31084
" />
<path d="M64025 31178
L63987 31159
L63950 31121
L63931 31046
L63931 30915
L63950 30840
L63987 30803
L64025 30784
L64100 30784
L64137 30803
L64175 30840
L64193 30915
L64193 31046
L64175 31121
L64137 31159
L64100 31178
L64025 31178
" />
<path d="M64531 30915
L64531 31178
" />
<path d="M64437 30765
L64343 31046
L64587 31046
" />
<path d="M71475 32409
L71531 32428
L71625 32428
L71662 32409
L71681 32390
L71700 32353
L71700 32315
L71681 32278
L71662 32259
L71625 32240
L71550 32221
L71512 32203
L71493 32184
L71475 32146
L71475 32109
L71493 32071
L71512 32053
L71550 32034
L71643 32034
L71700 32053
" />
<path d="M71831 32034
L71925 32428
L72000 32146
L72074 32428
L72168 32034
" />
<path d="M72524 32428
L72299 32428
" />
<path d="M72412 32428
L72412 32034
L72374 32090
L72337 32128
L72299 32146
" />
<path d="M75475 32409
L75531 32428
L75625 32428
L75662 32409
L75681 32390
L75700 32353
L75700 32315
L75681 32278
L75662 32259
L75625 32240
L75550 32221
L75512 32203
L75493 32184
L75475 32146
L75475 32109
L75493 32071
L75512 32053
L75550 32034
L75643 32034
L75700 32053
" />
<path d="M75831 32034
L75925 32428
L76000 32146
L76074 32428
L76168 32034
" />
<path d="M76299 32071
L76318 32053
L76356 32034
L76449 32034
L76487 32053
L76506 32071
L76524 32109
L76524 32146
L76506 32203
L76281 32428
L76524 32428
" />
<path d="M79725 38159
L79781 38178
L79875 38178
L79912 38159
L79931 38140
L79950 38103
L79950 38065
L79931 38028
L79912 38009
L79875 37990
L79800 37971
L79762 37953
L79743 37934
L79725 37896
L79725 37859
L79743 37821
L79762 37803
L79800 37784
L79893 37784
L79950 37803
" />
<path d="M80081 37784
L80175 38178
L80250 37896
L80324 38178
L80418 37784
" />
<path d="M80531 37784
L80774 37784
L80643 37934
L80699 37934
L80737 37953
L80756 37971
L80774 38009
L80774 38103
L80756 38140
L80737 38159
L80699 38178
L80587 38178
L80549 38159
L80531 38140
" />
<path d="M79725 35159
L79781 35178
L79875 35178
L79912 35159
L79931 35140
L79950 35103
L79950 35065
L79931 35028
L79912 35009
L79875 34990
L79800 34971
L79762 34953
L79743 34934
L79725 34896
L79725 34859
L79743 34821
L79762 34803
L79800 34784
L79893 34784
L79950 34803
" />
<path d="M80081 34784
L80175 35178
L80250 34896
L80324 35178
L80418 34784
" />
<path d="M80737 34915
L80737 35178
" />
<path d="M80643 34765
L80549 35046
L80793 35046
" />
<path d="M60931 35284
L60931 35565
L60912 35621
L60875 35659
L60818 35678
L60781 35678
" />
<path d="M61324 35678
L61100 35678
" />
<path d="M61212 35678
L61212 35284
L61175 35340
L61137 35378
L61100 35396
" />
<path d="M61568 35284
L61606 35284
L61643 35303
L61662 35321
L61681 35359
L61699 35434
L61699 35528
L61681 35603
L61662 35640
L61643 35659
L61606 35678
L61568 35678
L61531 35659
L61512 35640
L61493 35603
L61474 35528
L61474 35434
L61493 35359
L61512 35321
L61531 35303
L61568 35284
" />
<path d="M84928 34003
L84740 34134
" />
<path d="M84928 34228
L84534 34228
L84534 34078
L84553 34040
L84571 34021
L84609 34003
L84665 34003
L84703 34021
L84721 34040
L84740 34078
L84740 34228
" />
<path d="M84928 33628
L84928 33853
" />
<path d="M84928 33740
L84534 33740
L84590 33778
L84628 33815
L84646 33853
" />
<path d="M84534 33271
L84534 33459
L84721 33478
L84703 33459
L84684 33421
L84684 33328
L84703 33290
L84721 33271
L84759 33253
L84853 33253
L84890 33271
L84909 33290
L84928 33328
L84928 33421
L84909 33459
L84890 33478
" />
<path d="M75434 22890
L75415 22909
L75359 22928
L75321 22928
L75265 22909
L75228 22871
L75209 22834
L75190 22759
L75190 22703
L75209 22628
L75228 22590
L75265 22553
L75321 22534
L75359 22534
L75415 22553
L75434 22571
" />
<path d="M75809 22928
L75584 22928
" />
<path d="M75696 22928
L75696 22534
L75659 22590
L75621 22628
L75584 22646
" />
<path d="M59640 25065
L59659 25084
L59678 25140
L59678 25178
L59659 25234
L59621 25271
L59584 25290
L59509 25309
L59453 25309
L59378 25290
L59340 25271
L59303 25234
L59284 25178
L59284 25140
L59303 25084
L59321 25065
" />
<path d="M59321 24915
L59303 24896
L59284 24859
L59284 24765
L59303 24728
L59321 24709
L59359 24690
L59396 24690
L59453 24709
L59678 24934
L59678 24690
" />
</g> 
</svg>
